<svg data-v-fde0c5aa="" xmlns="http://www.w3.org/2000/svg" viewBox="0 0 300 300" class="iconLeft"><!----><defs data-v-fde0c5aa=""><!----></defs><rect data-v-fde0c5aa="" fill="#DF8E40" x="0" y="0" width="300px" height="300px" class="logo-background-square"></rect><defs data-v-fde0c5aa=""><!----></defs><g data-v-fde0c5aa="" id="1d9843a9-d651-48c2-a8a8-2f29c43e7842" fill="#2A1A0A" transform="matrix(1.8150729583414422,0,0,1.8150729583414422,84.5005923085033,132.25766165911355)"><path d="M0.37 3.91L2.18 3.91Q2.22 3.91 2.34 3.91Q2.47 3.91 2.64 3.91Q2.80 3.91 2.99 3.91Q3.18 3.91 3.35 3.91Q3.51 3.91 3.64 3.91Q3.77 3.91 3.81 3.91L3.81 3.91L7.71 10.49L7.72 10.49L7.72 5.70Q7.72 5.51 7.69 5.40Q7.66 5.28 7.59 5.22Q7.51 5.16 7.38 5.14Q7.25 5.13 7.03 5.13L7.03 5.13L6.72 5.13L6.72 3.91Q7.23 3.91 7.64 3.92Q8.05 3.92 8.38 3.92L8.38 3.92Q8.43 3.92 8.53 3.92Q8.64 3.92 8.78 3.92Q8.91 3.92 9.07 3.92Q9.23 3.92 9.39 3.92L9.39 3.92Q9.75 3.92 10.19 3.91L10.19 3.91L10.19 5.13L9.84 5.13Q9.61 5.13 9.49 5.18Q9.37 5.23 9.31 5.32Q9.25 5.41 9.24 5.55Q9.23 5.68 9.23 5.84L9.23 5.84Q9.23 5.85 9.23 6.17Q9.23 6.48 9.23 6.98Q9.23 7.49 9.23 8.12Q9.23 8.76 9.23 9.42L9.23 9.42L9.23 12.95L6.98 12.95L2.87 6.10L2.86 6.10L2.86 11.03Q2.86 11.25 2.89 11.36Q2.91 11.48 2.99 11.55Q3.07 11.61 3.21 11.62Q3.34 11.63 3.57 11.63L3.57 11.63L3.90 11.63L3.90 12.85Q3.51 12.85 3.11 12.84Q2.71 12.84 2.19 12.84L2.19 12.84Q1.89 12.84 1.65 12.84Q1.42 12.84 1.20 12.84Q0.98 12.84 0.78 12.85Q0.57 12.85 0.36 12.85L0.36 12.85L0.36 11.63L0.71 11.63Q0.96 11.63 1.10 11.59Q1.23 11.54 1.29 11.44Q1.35 11.35 1.36 11.20Q1.37 11.05 1.37 10.86L1.37 10.86L1.37 5.82Q1.37 5.61 1.35 5.48Q1.34 5.35 1.27 5.27Q1.21 5.19 1.08 5.16Q0.95 5.13 0.72 5.13L0.72 5.13L0.37 5.13L0.37 3.91ZM18.22 9.96L17.85 10.01L13.20 10.01Q13.21 10.99 13.68 11.45Q14.15 11.92 14.97 11.92L14.97 11.92Q15.55 11.92 15.95 11.65Q16.35 11.38 16.52 11.01L16.52 11.01L18.08 11.13Q17.81 12.07 16.96 12.54Q16.11 13.01 14.81 13.01L14.81 13.01Q13.87 13.01 13.17 12.76Q12.48 12.52 12.01 12.10Q11.55 11.68 11.32 11.08Q11.09 10.48 11.09 9.77L11.09 9.77Q11.09 9.01 11.34 8.39Q11.60 7.78 12.07 7.35Q12.54 6.92 13.21 6.69Q13.87 6.45 14.68 6.45L14.68 6.45Q15.47 6.45 16.12 6.68Q16.77 6.90 17.23 7.34Q17.70 7.78 17.96 8.44Q18.22 9.09 18.22 9.96L18.22 9.96ZM16.26 9.12L16.26 9.13L16.26 9.08Q16.26 9.06 16.26 9.03Q16.26 9.01 16.26 8.98L16.26 8.98Q16.19 8.26 15.80 7.86Q15.42 7.46 14.78 7.46L14.78 7.46Q14.08 7.46 13.68 7.90Q13.28 8.35 13.22 9.12L13.22 9.12L16.26 9.12ZM18.66 7.75L18.66 6.64Q18.74 6.64 18.94 6.65Q19.13 6.65 19.37 6.65Q19.61 6.66 19.84 6.66Q20.07 6.67 20.23 6.67L20.23 6.67Q20.58 6.67 21.06 6.65Q21.55 6.64 22.02 6.64L22.02 6.64L22.02 7.75Q21.94 7.75 21.82 7.75Q21.70 7.75 21.66 7.75L21.66 7.75Q21.44 7.75 21.39 7.84Q21.33 7.93 21.36 8.09L21.36 8.09Q21.38 8.35 21.46 8.64Q21.53 8.93 21.62 9.19L21.62 9.19Q21.70 9.48 21.82 9.83Q21.94 10.18 22.05 10.51Q22.16 10.85 22.25 11.13Q22.34 11.41 22.39 11.57L22.39 11.57Q22.56 11.03 22.70 10.60L22.70 10.60Q22.76 10.41 22.82 10.23Q22.88 10.05 22.93 9.90Q22.98 9.75 23.01 9.66Q23.04 9.56 23.05 9.54L23.05 9.54L23.95 6.88L25.97 6.88L26.74 9.36Q26.76 9.41 26.79 9.53Q26.83 9.65 26.88 9.81Q26.93 9.98 26.98 10.18Q27.04 10.38 27.10 10.58L27.10 10.58Q27.23 11.05 27.40 11.60L27.40 11.60Q27.70 10.67 27.93 9.93L27.93 9.93Q28.03 9.62 28.13 9.32Q28.23 9.02 28.30 8.78Q28.38 8.54 28.42 8.39Q28.47 8.24 28.48 8.22L28.48 8.22Q28.52 8.07 28.57 7.94L28.57 7.94Q28.53 7.83 28.37 7.80Q28.22 7.77 27.88 7.75L27.88 7.75L27.88 6.64Q28.23 6.65 28.57 6.66Q28.92 6.67 29.26 6.67L29.26 6.67Q29.61 6.67 29.94 6.66Q30.27 6.65 30.62 6.64L30.62 6.64L30.62 7.75Q30.37 7.77 30.24 7.79Q30.11 7.81 30.02 7.91Q29.94 8.00 29.87 8.18Q29.80 8.35 29.68 8.67L29.68 8.67L28.14 12.95L26.19 12.95L24.68 8.31L23.15 12.95L21.19 12.95L19.53 8.43Q19.43 8.20 19.37 8.07Q19.30 7.94 19.21 7.87Q19.11 7.81 18.99 7.79Q18.86 7.77 18.66 7.75L18.66 7.75ZM36.97 6.69L36.97 8.52L35.89 8.52Q35.78 8.03 35.37 7.73Q34.97 7.44 34.30 7.42L34.30 7.42Q34.02 7.42 33.83 7.47Q33.63 7.53 33.51 7.62Q33.39 7.71 33.33 7.83Q33.27 7.95 33.27 8.08L33.27 8.08Q33.27 8.24 33.37 8.36Q33.48 8.48 33.67 8.59Q33.86 8.69 34.14 8.78Q34.41 8.87 34.77 8.98L34.77 8.98Q35.37 9.14 35.83 9.32Q36.29 9.50 36.61 9.74Q36.93 9.98 37.09 10.30Q37.26 10.62 37.26 11.07L37.26 11.07Q37.26 11.58 37.04 11.95Q36.82 12.31 36.46 12.55Q36.10 12.79 35.64 12.90Q35.18 13.01 34.70 13.01L34.70 13.01Q34.00 13.01 33.53 12.83Q33.07 12.66 32.76 12.30L32.76 12.30L32.74 12.84Q32.42 12.84 32.11 12.82Q31.81 12.80 31.49 12.80L31.49 12.80L31.49 10.86L32.73 10.86Q32.76 11.17 32.90 11.40Q33.04 11.63 33.26 11.79Q33.48 11.94 33.76 12.02Q34.04 12.09 34.35 12.09L34.35 12.09Q34.83 12.09 35.14 11.92Q35.44 11.74 35.44 11.43L35.44 11.43Q35.44 11.22 35.28 11.08Q35.11 10.93 34.83 10.81Q34.56 10.68 34.20 10.57Q33.84 10.45 33.46 10.32L33.46 10.32Q33.00 10.15 32.63 9.98Q32.27 9.81 32.01 9.59Q31.75 9.37 31.62 9.08Q31.48 8.78 31.48 8.37L31.48 8.37Q31.48 7.95 31.64 7.60Q31.80 7.26 32.11 7.02Q32.42 6.77 32.87 6.64Q33.32 6.51 33.89 6.51L33.89 6.51Q34.49 6.51 35.01 6.66Q35.53 6.82 35.83 7.12L35.83 7.12Q35.84 7.08 35.86 7.00Q35.88 6.91 35.90 6.82L35.90 6.82Q35.92 6.72 35.94 6.60L35.94 6.60Q36.15 6.62 36.34 6.64L36.34 6.64Q36.50 6.65 36.68 6.67Q36.85 6.68 36.97 6.69L36.97 6.69ZM41.85 5.13L41.85 3.91Q41.95 3.91 42.19 3.91Q42.43 3.92 42.72 3.92Q43.02 3.92 43.32 3.92Q43.62 3.92 43.83 3.92L43.83 3.92Q44.02 3.92 44.27 3.92Q44.52 3.92 44.79 3.92Q45.07 3.92 45.35 3.91Q45.63 3.91 45.89 3.91L45.89 3.91L46.93 7.04Q47.12 7.63 47.31 8.19Q47.50 8.75 47.64 9.19Q47.78 9.63 47.88 9.90Q47.97 10.17 47.97 10.17L47.97 10.17Q48.03 9.94 48.19 9.46Q48.34 8.98 48.55 8.36Q48.76 7.75 48.99 7.08Q49.23 6.40 49.44 5.78Q49.65 5.16 49.82 4.66Q49.98 4.16 50.06 3.91L50.06 3.91Q50.31 3.91 50.61 3.91Q50.91 3.92 51.23 3.92Q51.54 3.92 51.82 3.92Q52.11 3.92 52.32 3.92L52.32 3.92Q52.48 3.92 52.75 3.92Q53.02 3.92 53.29 3.92Q53.57 3.92 53.79 3.91Q54.00 3.91 54.08 3.91L54.08 3.91L54.08 5.13L53.73 5.13Q53.52 5.13 53.40 5.16Q53.28 5.19 53.22 5.25Q53.16 5.30 53.15 5.39Q53.14 5.48 53.14 5.60L53.14 5.60L53.14 8.32Q53.14 9.50 53.14 11.01L53.14 11.01Q53.14 11.19 53.16 11.31Q53.18 11.44 53.25 11.51Q53.31 11.58 53.44 11.61Q53.56 11.63 53.76 11.63L53.76 11.63L54.10 11.63L54.10 12.85Q53.84 12.85 53.59 12.85Q53.35 12.84 53.08 12.84Q52.82 12.84 52.53 12.84Q52.24 12.84 51.91 12.84L51.91 12.84Q51.61 12.84 51.38 12.84Q51.15 12.84 50.95 12.84Q50.75 12.84 50.56 12.85Q50.37 12.85 50.17 12.85L50.17 12.85L50.17 11.63L50.45 11.63Q50.68 11.63 50.81 11.58Q50.95 11.52 51.02 11.41Q51.09 11.29 51.11 11.13Q51.13 10.96 51.13 10.76L51.13 10.76L51.13 5.00L50.74 6.07L48.32 12.85L47.07 12.85Q47.00 12.69 46.88 12.35Q46.76 12.00 46.60 11.55Q46.44 11.09 46.25 10.56Q46.07 10.02 45.88 9.47Q45.68 8.92 45.50 8.39Q45.31 7.85 45.15 7.40Q44.99 6.95 44.87 6.60Q44.75 6.25 44.69 6.09L44.69 6.09L44.50 5.56Q44.46 5.46 44.42 5.36Q44.39 5.26 44.36 5.19L44.36 5.19Q44.32 5.10 44.30 5.02L44.30 5.02L44.30 11.03Q44.30 11.23 44.32 11.35Q44.34 11.47 44.41 11.53Q44.47 11.59 44.59 11.61Q44.71 11.63 44.91 11.63L44.91 11.63L45.24 11.63L45.24 12.85Q45.04 12.85 44.86 12.85Q44.67 12.84 44.47 12.84Q44.28 12.84 44.05 12.84Q43.83 12.84 43.57 12.84L43.57 12.84Q43.28 12.84 43.05 12.84Q42.81 12.84 42.61 12.84Q42.40 12.84 42.21 12.85Q42.01 12.85 41.81 12.85L41.81 12.85L41.81 11.63L42.14 11.63Q42.39 11.63 42.52 11.58Q42.65 11.53 42.70 11.44Q42.76 11.34 42.77 11.20Q42.78 11.07 42.79 10.89L42.79 10.89L42.79 5.75Q42.79 5.58 42.77 5.47Q42.75 5.35 42.68 5.27Q42.62 5.20 42.49 5.16Q42.37 5.13 42.17 5.13L42.17 5.13L41.85 5.13ZM58.88 6.45L58.88 6.45Q59.64 6.45 60.32 6.67Q61.00 6.88 61.52 7.29Q62.03 7.71 62.33 8.33Q62.63 8.95 62.63 9.75L62.63 9.75Q62.63 10.54 62.34 11.16Q62.04 11.77 61.54 12.17Q61.03 12.56 60.35 12.79Q59.66 13.01 58.88 13.01L58.88 13.01Q58.08 13.01 57.40 12.79Q56.72 12.57 56.21 12.17Q55.70 11.78 55.41 11.16Q55.12 10.55 55.12 9.75L55.12 9.75Q55.12 8.98 55.41 8.36Q55.69 7.75 56.20 7.32Q56.70 6.90 57.39 6.68Q58.08 6.45 58.88 6.45ZM58.88 7.58L58.88 7.58Q58.11 7.58 57.68 8.16Q57.26 8.73 57.26 9.75L57.26 9.75Q57.26 10.77 57.67 11.34Q58.09 11.92 58.86 11.92L58.86 11.92Q59.25 11.92 59.55 11.76Q59.85 11.61 60.06 11.33Q60.27 11.05 60.38 10.64Q60.49 10.23 60.49 9.72L60.49 9.72Q60.49 9.22 60.38 8.83Q60.27 8.43 60.07 8.15Q59.86 7.88 59.56 7.73Q59.26 7.58 58.88 7.58ZM63.46 12.85L63.46 12.85Q63.46 12.84 63.46 12.75Q63.46 12.67 63.46 12.55Q63.46 12.43 63.45 12.30Q63.45 12.16 63.45 12.04Q63.45 11.93 63.45 11.85Q63.45 11.76 63.45 11.74L63.45 11.74Q63.75 11.74 63.93 11.73Q64.11 11.72 64.22 11.66Q64.32 11.61 64.36 11.50Q64.39 11.39 64.39 11.19L64.39 11.19L64.39 8.09Q64.39 7.96 64.34 7.89Q64.29 7.81 64.17 7.78Q64.06 7.75 63.89 7.75Q63.72 7.74 63.49 7.74L63.49 7.74L63.49 6.64Q63.79 6.64 64.05 6.65Q64.32 6.65 64.57 6.65L64.57 6.65Q65.04 6.65 65.48 6.64Q65.93 6.64 66.42 6.62L66.42 6.62L66.42 7.64Q66.61 7.42 66.86 7.22Q67.12 7.01 67.42 6.86Q67.73 6.71 68.09 6.61Q68.46 6.52 68.87 6.51L68.87 6.51Q69.45 6.51 69.89 6.65Q70.33 6.79 70.63 7.10Q70.92 7.41 71.07 7.90Q71.22 8.38 71.22 9.06L71.22 9.06L71.22 11.33Q71.22 11.50 71.28 11.59Q71.33 11.67 71.44 11.70Q71.54 11.74 71.70 11.74Q71.86 11.74 72.06 11.74L72.06 11.74L72.06 12.85Q71.85 12.85 71.65 12.85Q71.46 12.85 71.24 12.85Q71.03 12.84 70.79 12.84Q70.55 12.84 70.27 12.84L70.27 12.84Q69.73 12.84 69.26 12.84Q68.78 12.85 68.31 12.85L68.31 12.85L68.31 11.74Q68.62 11.74 68.79 11.73Q68.95 11.71 69.03 11.66Q69.10 11.60 69.12 11.50Q69.13 11.40 69.13 11.22L69.13 11.22L69.13 9.35Q69.13 8.98 69.08 8.69Q69.02 8.40 68.89 8.21Q68.76 8.02 68.54 7.92Q68.33 7.82 68.00 7.82L68.00 7.82Q67.73 7.82 67.51 7.88Q67.29 7.94 67.11 8.03Q66.94 8.12 66.81 8.24Q66.68 8.37 66.59 8.49L66.59 8.49Q66.51 8.71 66.50 8.97Q66.48 9.24 66.48 9.54L66.48 9.54L66.48 11.22Q66.48 11.42 66.53 11.53Q66.59 11.63 66.71 11.68Q66.82 11.72 67.01 11.73Q67.19 11.74 67.45 11.74L67.45 11.74L67.45 12.85Q67.20 12.85 66.96 12.85Q66.73 12.85 66.48 12.85Q66.23 12.84 65.96 12.84Q65.68 12.84 65.34 12.84L65.34 12.84Q64.78 12.84 64.34 12.84Q63.90 12.85 63.46 12.85ZM72.59 12.85L72.59 11.74Q72.88 11.73 73.06 11.71Q73.24 11.68 73.34 11.62Q73.45 11.56 73.48 11.46Q73.52 11.35 73.52 11.19L73.52 11.19L73.52 5.45Q73.52 5.28 73.46 5.19Q73.39 5.09 73.27 5.05Q73.15 5.01 72.99 5.01Q72.82 5.00 72.63 5.00L72.63 5.00L72.63 3.91Q72.65 3.91 72.73 3.91Q72.81 3.91 72.92 3.91Q73.03 3.91 73.16 3.91Q73.29 3.90 73.42 3.90L73.42 3.90Q73.74 3.90 74.12 3.90L74.12 3.90Q74.51 3.90 74.86 3.89Q75.20 3.88 75.60 3.87L75.60 3.87L75.60 9.56L77.09 8.40Q77.25 8.28 77.41 8.15Q77.56 8.01 77.68 7.90Q77.80 7.79 77.87 7.72Q77.94 7.64 77.94 7.63L77.94 7.63Q77.94 7.61 77.85 7.60Q77.77 7.59 77.65 7.59Q77.53 7.58 77.40 7.58Q77.28 7.58 77.22 7.58L77.22 7.58L77.23 6.64Q77.68 6.66 78.02 6.66Q78.35 6.66 78.65 6.66L78.65 6.66Q78.87 6.66 79.08 6.66Q79.30 6.66 79.53 6.66Q79.77 6.66 80.03 6.65Q80.29 6.65 80.60 6.64L80.60 6.64L80.60 7.66L80.41 7.66Q80.34 7.66 80.26 7.65Q80.19 7.65 80.17 7.65L80.17 7.65Q80.00 7.65 79.88 7.67Q79.77 7.69 79.65 7.75Q79.54 7.80 79.40 7.89Q79.26 7.98 79.07 8.13L79.07 8.13L77.64 9.24L79.56 11.24Q79.81 11.54 80.03 11.63Q80.25 11.73 80.53 11.74L80.53 11.74L80.91 11.74L80.91 12.85Q80.68 12.85 80.39 12.85Q80.10 12.84 79.83 12.84Q79.55 12.84 79.33 12.84Q79.11 12.84 79.02 12.84L79.02 12.84Q78.45 12.84 78.01 12.84Q77.57 12.85 77.10 12.85L77.10 12.85L77.10 11.74Q77.15 11.74 77.22 11.74Q77.28 11.74 77.34 11.73Q77.40 11.73 77.44 11.73Q77.49 11.72 77.51 11.72L77.51 11.72Q77.69 11.70 77.69 11.65L77.69 11.65Q77.69 11.61 77.64 11.55Q77.59 11.50 77.51 11.43L77.51 11.43L76.19 10.04L75.61 10.45L75.61 11.27Q75.61 11.41 75.63 11.50Q75.65 11.59 75.73 11.64Q75.82 11.69 75.98 11.71Q76.15 11.74 76.44 11.74L76.44 11.74L76.44 12.85Q76.23 12.85 75.99 12.85Q75.75 12.85 75.49 12.85Q75.22 12.84 74.95 12.84Q74.68 12.84 74.43 12.84L74.43 12.84Q74.25 12.84 74.02 12.84Q73.79 12.84 73.53 12.84Q73.28 12.84 73.04 12.85Q72.79 12.85 72.59 12.85L72.59 12.85ZM88.54 9.96L88.17 10.01L83.52 10.01Q83.53 10.99 84 11.45Q84.47 11.92 85.29 11.92L85.29 11.92Q85.87 11.92 86.27 11.65Q86.67 11.38 86.84 11.01L86.84 11.01L88.40 11.13Q88.13 12.07 87.28 12.54Q86.43 13.01 85.13 13.01L85.13 13.01Q84.19 13.01 83.49 12.76Q82.80 12.52 82.33 12.10Q81.87 11.68 81.64 11.08Q81.41 10.48 81.41 9.77L81.41 9.77Q81.41 9.01 81.67 8.39Q81.92 7.78 82.39 7.35Q82.87 6.92 83.53 6.69Q84.19 6.45 85.00 6.45L85.00 6.45Q85.79 6.45 86.44 6.68Q87.09 6.90 87.55 7.34Q88.02 7.78 88.28 8.44Q88.54 9.09 88.54 9.96L88.54 9.96ZM86.58 9.12L86.58 9.13L86.58 9.08Q86.58 9.06 86.58 9.03Q86.58 9.01 86.58 8.98L86.58 8.98Q86.52 8.26 86.13 7.86Q85.74 7.46 85.10 7.46L85.10 7.46Q84.40 7.46 84.00 7.90Q83.60 8.35 83.54 9.12L83.54 9.12L86.58 9.12ZM88.67 7.85L88.67 6.64Q89.17 6.64 89.61 6.65Q90.04 6.66 90.38 6.66L90.38 6.66Q90.84 6.66 91.33 6.65Q91.82 6.65 92.45 6.64L92.45 6.64L92.45 7.75Q92.34 7.77 92.23 7.76Q92.11 7.76 92.02 7.77L92.02 7.77Q91.82 7.79 91.71 7.85Q91.60 7.91 91.57 8.06L91.57 8.06Q91.59 8.16 91.64 8.28Q91.68 8.39 91.73 8.51Q91.79 8.63 91.84 8.75Q91.90 8.87 91.94 8.96L91.94 8.96L92.99 11.35Q93.07 11.16 93.20 10.83Q93.34 10.51 93.50 10.13Q93.66 9.74 93.83 9.31Q94.00 8.89 94.16 8.48L94.16 8.48Q94.27 8.22 94.30 8.03L94.30 8.03Q94.26 7.88 94.09 7.81Q93.91 7.75 93.47 7.75L93.47 7.75L93.47 6.64Q93.93 6.65 94.28 6.65Q94.63 6.66 94.99 6.66L94.99 6.66Q95.37 6.66 95.77 6.65Q96.17 6.65 96.67 6.64L96.67 6.64Q96.67 6.67 96.67 6.84Q96.67 7.01 96.67 7.20Q96.67 7.40 96.68 7.56Q96.68 7.73 96.69 7.75L96.69 7.75Q96.40 7.76 96.24 7.79Q96.07 7.83 95.97 7.91Q95.87 7.99 95.79 8.14Q95.71 8.29 95.59 8.51L95.59 8.51Q95.50 8.70 95.32 9.11Q95.13 9.52 94.89 10.04Q94.64 10.56 94.38 11.14Q94.11 11.72 93.87 12.24Q93.63 12.76 93.44 13.17Q93.25 13.58 93.17 13.77L93.17 13.77Q92.91 14.31 92.69 14.68Q92.46 15.04 92.20 15.26Q91.94 15.48 91.62 15.58Q91.29 15.67 90.86 15.67L90.86 15.67Q90.73 15.67 90.53 15.67Q90.33 15.67 90.19 15.68L90.19 15.68L90.19 14.53Q90.34 14.53 90.46 14.53Q90.58 14.53 90.68 14.52L90.68 14.52Q90.95 14.51 91.12 14.45Q91.29 14.39 91.43 14.24Q91.57 14.10 91.70 13.85Q91.83 13.60 92.01 13.21L92.01 13.21Q91.42 11.92 90.94 10.90L90.94 10.90Q90.73 10.46 90.54 10.04Q90.34 9.62 90.19 9.28Q90.03 8.94 89.93 8.73Q89.83 8.51 89.82 8.48L89.82 8.48Q89.71 8.26 89.64 8.13Q89.56 8.00 89.46 7.94Q89.35 7.87 89.16 7.85Q88.98 7.83 88.67 7.85L88.67 7.85Z"></path></g><defs data-v-fde0c5aa=""><!----></defs><g data-v-fde0c5aa="" id="380e5141-c48e-4290-bb68-3d9889ba4b86" stroke="none" fill="#2A1A0A" transform="matrix(1.00481308123347,0,0,1.00481308123347,40,133.92299070026448)"><path d="M0 16.024L15.976 32 32 15.976 16.024 0 0 16.024zm15.989 7.323l-7.336-7.336 14.694-.022-7.358 7.358z"></path></g><!----></svg>